<svg xmlns="http://www.w3.org/2000/svg" viewBox="0 0 142.67 130.47">
  <title>1</title>
  <g id="Слой_2" data-name="Слой 2">
    <g id="Слой_1-2" data-name="Слой 1">
      <rect x="3" y="17.22" width="136.67" height="110.25" style="fill: #fff;stroke: #201600;stroke-linecap: round;stroke-linejoin: round;stroke-width: 6px"/>
      <line x1="3" y1="40.65" x2="139.67" y2="40.65" style="fill: none;stroke: #201600;stroke-linecap: round;stroke-linejoin: round;stroke-width: 6px"/>
      <line x1="21.33" y1="3" x2="21.33" y2="24.65" style="fill: none;stroke: #201600;stroke-linecap: round;stroke-linejoin: round;stroke-width: 6px"/>
      <line x1="121.33" y1="3" x2="121.33" y2="24.65" style="fill: none;stroke: #201600;stroke-linecap: round;stroke-linejoin: round;stroke-width: 6px"/>
      <line x1="71.33" y1="3" x2="71.33" y2="24.65" style="fill: none;stroke: #201600;stroke-linecap: round;stroke-linejoin: round;stroke-width: 6px"/>
      <rect x="21.33" y="56.82" width="9.66" height="9.66" style="fill: none;stroke: #201600;stroke-linecap: round;stroke-linejoin: round;stroke-width: 6px"/>
      <rect x="44.85" y="56.82" width="9.66" height="9.66" style="fill: none;stroke: #201600;stroke-linecap: round;stroke-linejoin: round;stroke-width: 6px"/>
      <rect x="68.36" y="56.65" width="9.66" height="9.66" style="fill: none;stroke: #201600;stroke-linecap: round;stroke-linejoin: round;stroke-width: 6px"/>
      <rect x="91.88" y="56.65" width="9.66" height="9.66" style="fill: #639ad2;stroke: #639ad2;stroke-linecap: round;stroke-linejoin: round;stroke-width: 6px"/>
      <rect x="115.39" y="56.82" width="9.66" height="9.66" style="fill: none;stroke: #201600;stroke-linecap: round;stroke-linejoin: round;stroke-width: 6px"/>
      <rect x="21.33" y="93.54" width="9.66" height="9.66" style="fill: none;stroke: #201600;stroke-linecap: round;stroke-linejoin: round;stroke-width: 6px"/>
      <rect x="44.85" y="93.54" width="9.66" height="9.66" style="fill: none;stroke: #201600;stroke-linecap: round;stroke-linejoin: round;stroke-width: 6px"/>
      <rect x="68.36" y="93.54" width="9.66" height="9.66" style="fill: none;stroke: #201600;stroke-linecap: round;stroke-linejoin: round;stroke-width: 6px"/>
      <rect x="91.88" y="93.54" width="9.66" height="9.66" style="fill: none;stroke: #201600;stroke-linecap: round;stroke-linejoin: round;stroke-width: 6px"/>
      <rect x="115.39" y="93.54" width="9.66" height="9.66" style="fill: none;stroke: #201600;stroke-linecap: round;stroke-linejoin: round;stroke-width: 6px"/>
      <polygon points="100.72 64.18 102.78 90.73 108.01 78.34 121.33 80.48 100.72 64.18" style="fill: #fff;stroke: #201600;stroke-linejoin: round;stroke-width: 3px"/>
    </g>
  </g>
</svg>
