<svg xmlns="http://www.w3.org/2000/svg" viewBox="0 0 164 164">
  <title>Ресурс 2</title>
  <g id="Слой_2" data-name="Слой 2">
    <g id="Слой_1-2" data-name="Слой 1">
      <g>
        <path d="M164,82c0,2.11-.08,4.21-.24,6.28a81.32,81.32,0,0,1-5.14,23c-.83,2.19-1.76,4.33-2.77,6.42a82.07,82.07,0,0,1-147.7,0c-.24-.5-.48-1-.71-1.52a80.54,80.54,0,0,1-5-14.38A82,82,0,1,1,164,82Z" style="fill: #201600"/>
        <path d="M93.53,117.68H8.15c-.24-.5-.48-1-.71-1.52a80.54,80.54,0,0,1-5-14.38L42.62,44.71a1.75,1.75,0,0,1,2.86,0L85.7,101.78,95,114.93A1.74,1.74,0,0,1,93.53,117.68Z" style="fill: #fff"/>
        <path d="M101.21,79.77,76.43,114.93a1.75,1.75,0,0,0,1.43,2.75h49.56a1.75,1.75,0,0,0,1.43-2.75L104.07,79.77A1.75,1.75,0,0,0,101.21,79.77Z" style="fill: #fff"/>
        <path d="M64.14,131.83H16.88a81.7,81.7,0,0,1-8.73-14.15c-.24-.5-.48-1-.71-1.52L29.13,93.23a1.75,1.75,0,0,1,2.54,0l23.14,24.45,10.6,11.2A1.75,1.75,0,0,1,64.14,131.83Z" style="fill: #201600"/>
        <path d="M163.76,88.28a81.32,81.32,0,0,1-5.14,23c-.83,2.19-1.76,4.33-2.77,6.42H122a1.75,1.75,0,0,1-1.62-2.41l3.18-7.81L146,52.51a1.75,1.75,0,0,1,3.24,0Z" style="fill: #fff"/>
        <path d="M158.62,111.26c-.83,2.19-1.76,4.33-2.77,6.42a82.27,82.27,0,0,1-15.94,22.38H122.5a1.75,1.75,0,0,1-1.5-2.64l11.73-19.74,13.35-22.47a1.74,1.74,0,0,1,3,0Z" style="fill: #201600"/>
        <path d="M103.36,109.61l-8.84,10a1.75,1.75,0,0,0,1.32,2.9H113.5a1.75,1.75,0,0,0,1.32-2.9l-8.84-10A1.74,1.74,0,0,0,103.36,109.61Z" style="fill: #201600"/>
        <line x1="61.26" y1="45.94" x2="61.26" y2="82" style="fill: none;stroke: #fff;stroke-miterlimit: 10;stroke-width: 3px"/>
        <polygon points="71.67 51.95 61.26 45.94 61.26 57.96 71.67 51.95" style="fill: none;stroke: #fff;stroke-miterlimit: 10;stroke-width: 3px"/>
      </g>
    </g>
  </g>
</svg>
